<svg id="Capa_2" data-name="Capa 2" xmlns="http://www.w3.org/2000/svg" viewBox="0 0 756.7 116.17"><defs><style>.cls-1{fill:#20263d;}.cls-2{fill:#a51271;}</style></defs><path class="cls-1" d="M52.16,337.93c-4.77-6.19-19.53-29.73.28-63.5a14.41,14.41,0,0,0,2-5.33c.36-2.54,0-5.29-3.76-3.92a10,10,0,0,0-4.16,3c-6.12,7.26-28,37.75-1.08,76.2A6.85,6.85,0,0,0,51,347.44c1.8,0,3.46-.92,3.25-4.22A9.76,9.76,0,0,0,52.16,337.93Z" transform="translate(-32.28 -247.64)"/><path class="cls-1" d="M257.3,337.93c4.77-6.19,19.53-29.73-.28-63.5a14.41,14.41,0,0,1-1.95-5.33c-.35-2.54,0-5.29,3.76-3.92a10,10,0,0,1,4.16,3c6.12,7.26,28,37.75,1.09,76.2a6.86,6.86,0,0,1-5.61,3.06c-1.8,0-3.47-.92-3.26-4.22A9.76,9.76,0,0,1,257.3,337.93Z" transform="translate(-32.28 -247.64)"/><path class="cls-2" d="M91.13,320.46a14.9,14.9,0,1,1,9.93-26l9.39-10.18a28.51,28.51,0,1,0,.37,41.57l-8.09-11A14.86,14.86,0,0,1,91.13,320.46Z" transform="translate(-32.28 -247.64)"/><path class="cls-1" d="M320.45,277.2c-16.69,0-29.21,12.53-29.21,29.22a29.22,29.22,0,1,0,29.21-29.22Zm0,42.78a14,14,0,1,1,14-14A14,14,0,0,1,320.45,320Z" transform="translate(-32.28 -247.64)"/><path class="cls-2" d="M611.13,276.72c-16.69,0-29.22,12.53-29.22,29.22a29.22,29.22,0,1,0,29.22-29.22Zm0,42.78a14,14,0,1,1,14-14A14,14,0,0,1,611.13,319.5Z" transform="translate(-32.28 -247.64)"/><path class="cls-1" d="M394.13,277.19c-16.92,0-29.62,12.7-29.62,29.62v57H379.9v-31a29.62,29.62,0,1,0,14.23-55.6Zm0,43.37a14.23,14.23,0,1,1,14.22-14.23A14.23,14.23,0,0,1,394.13,320.56Z" transform="translate(-32.28 -247.64)"/><path class="cls-1" d="M440.11,247.64H456v29.08H468.4v11.51H456v18.58s2.48,11.55,12.43,10.27V332.4s-22.88,3.07-28.29-23.23Z" transform="translate(-32.28 -247.64)"/><circle class="cls-1" cx="460.33" cy="17.18" r="8.98"/><rect class="cls-1" x="453.48" y="29.08" width="14.55" height="55.79"/><path class="cls-2" d="M195.47,332.51l-10.83-32.08a27.79,27.79,0,0,0-1.83-5.41v0h0a29.22,29.22,0,0,0-26.65-17c-16.69,0-29.22,12.37-29.22,28.84a29,29,0,0,0,29.22,28.83,29.32,29.32,0,0,0,22-9.88l2.75,6.76Zm-39.32-12.32a13.86,13.86,0,1,1,14-13.86A13.95,13.95,0,0,1,156.15,320.19Z" transform="translate(-32.28 -247.64)"/><path class="cls-2" d="M213.85,332.51h13l.94-27.42a14.34,14.34,0,0,1,2.57-7.92,12.16,12.16,0,0,1,10.53-5.25V277.19s-8.85-1.49-17.62,6.57a29.94,29.94,0,0,0-9.44,22.11Z" transform="translate(-32.28 -247.64)"/><path class="cls-2" d="M545,320.45a14.89,14.89,0,1,1,9.93-26l9.38-10.19a28.52,28.52,0,1,0,.37,41.58l-8.08-11A14.86,14.86,0,0,1,545,320.45Z" transform="translate(-32.28 -247.64)"/><circle class="cls-1" cx="747.41" cy="78.22" r="9.29"/><rect class="cls-1" x="739.44" y="8.2" width="15.05" height="57.71"/><path class="cls-2" d="M727.24,277.47A28.69,28.69,0,0,0,705.85,287a28.52,28.52,0,0,0-21.12-9.23c-13.46,0-25.37,9.55-26.82,21.23l.26,33.17h12L670,298.77c2-5.22,8.38-8.93,14.72-8.93a16.71,16.71,0,0,1,13.69,7.22,6.48,6.48,0,0,1,1.18,3.77l-.12,31.49,12.07.19v-.65h1.07l-.11-33.41c2-5.22,8.38-8.93,14.73-8.93a16.74,16.74,0,0,1,13.68,7.22,6.5,6.5,0,0,1,1.18,3.77L742,332l12.06.19V298.69C752.42,286.8,740.7,277.47,727.24,277.47Z" transform="translate(-32.28 -247.64)"/></svg>