<svg width="24" height="24" viewBox="0 0 24 24" fill="none" xmlns="http://www.w3.org/2000/svg">
<rect width="24" height="24" rx="4" fill="#E5F1FF"/>
<path fill-rule="evenodd" clip-rule="evenodd" d="M12.0001 5.99996C8.68637 5.99996 6.00008 8.68625 6.00008 12C6.00008 15.3137 8.68637 18 12.0001 18C15.3138 18 18.0001 15.3137 18.0001 12C18.0001 8.68625 15.3138 5.99996 12.0001 5.99996ZM4.66675 12C4.66675 7.94987 7.94999 4.66663 12.0001 4.66663C16.0502 4.66663 19.3334 7.94987 19.3334 12C19.3334 16.05 16.0502 19.3333 12.0001 19.3333C7.94999 19.3333 4.66675 16.05 4.66675 12Z" fill="#0061CC"/>
<path fill-rule="evenodd" clip-rule="evenodd" d="M11.9999 11.3334C12.3681 11.3334 12.6666 11.6319 12.6666 12V14.6667C12.6666 15.0349 12.3681 15.3334 11.9999 15.3334C11.6317 15.3334 11.3333 15.0349 11.3333 14.6667V12C11.3333 11.6319 11.6317 11.3334 11.9999 11.3334Z" fill="#0061CC"/>
<path fill-rule="evenodd" clip-rule="evenodd" d="M11.3333 9.33329C11.3333 8.9651 11.6317 8.66663 11.9999 8.66663H12.0066C12.3748 8.66663 12.6733 8.9651 12.6733 9.33329C12.6733 9.70148 12.3748 9.99996 12.0066 9.99996H11.9999C11.6317 9.99996 11.3333 9.70148 11.3333 9.33329Z" fill="#0061CC"/>
</svg>
