<svg width="24" height="24" viewBox="0 0 24 24" fill="none" xmlns="http://www.w3.org/2000/svg">
<rect width="24" height="24" rx="4" fill="#FCEFD0"/>
<path fill-rule="evenodd" clip-rule="evenodd" d="M11.0187 5.52212C11.3183 5.35348 11.6562 5.26489 11.9999 5.26489C12.3437 5.26489 12.6816 5.35348 12.9811 5.52212C13.2807 5.69076 13.5317 5.93374 13.7099 6.22764L13.7119 6.2308L19.3585 15.6575L19.3639 15.6667C19.5386 15.9691 19.631 16.312 19.6319 16.6612C19.6329 17.0104 19.5424 17.3538 19.3695 17.6572C19.1966 17.9606 18.9472 18.2134 18.6462 18.3905C18.3452 18.5676 18.0031 18.6628 17.6539 18.6667L17.6466 18.6668L6.34594 18.6667C5.99674 18.6629 5.65463 18.5676 5.35365 18.3905C5.05266 18.2134 4.8033 17.9606 4.63037 17.6572C4.45743 17.3538 4.36695 17.0104 4.36793 16.6612C4.36891 16.312 4.46131 15.9691 4.63594 15.6667L4.64135 15.6575L10.2899 6.22763C10.4682 5.93374 10.7192 5.69076 11.0187 5.52212ZM11.9999 6.59823C11.8854 6.59823 11.7727 6.62776 11.6729 6.68397C11.5735 6.73993 11.4901 6.82044 11.4307 6.91781L5.78839 16.3373C5.73161 16.4371 5.70158 16.55 5.70126 16.6649C5.70093 16.7813 5.73109 16.8958 5.78874 16.9969C5.84638 17.0981 5.9295 17.1823 6.02983 17.2414C6.12928 17.2999 6.2422 17.3316 6.35753 17.3334H17.6423C17.7577 17.3316 17.8706 17.2999 17.97 17.2414C18.0704 17.1823 18.1535 17.0981 18.2111 16.9969C18.2688 16.8958 18.2989 16.7813 18.2986 16.6649C18.2983 16.55 18.2683 16.4372 18.2115 16.3373L12.5699 6.91914C12.5697 6.9187 12.5694 6.91826 12.5691 6.91781C12.5098 6.82044 12.4264 6.73993 12.327 6.68397C12.2272 6.62776 12.1145 6.59823 11.9999 6.59823Z" fill="#C18C11"/>
<path fill-rule="evenodd" clip-rule="evenodd" d="M11.9999 9.33337C12.3681 9.33337 12.6666 9.63185 12.6666 10V12.6667C12.6666 13.0349 12.3681 13.3334 11.9999 13.3334C11.6317 13.3334 11.3333 13.0349 11.3333 12.6667V10C11.3333 9.63185 11.6317 9.33337 11.9999 9.33337Z" fill="#C18C11"/>
<path fill-rule="evenodd" clip-rule="evenodd" d="M11.3333 15.3333C11.3333 14.9651 11.6317 14.6666 11.9999 14.6666H12.0066C12.3748 14.6666 12.6733 14.9651 12.6733 15.3333C12.6733 15.7015 12.3748 16 12.0066 16H11.9999C11.6317 16 11.3333 15.7015 11.3333 15.3333Z" fill="#C18C11"/>
</svg>
